<svg viewBox="0 0 87 74" fill="none" xmlns="http://www.w3.org/2000/svg">
  <path
    fill-rule="evenodd"
    clip-rule="evenodd"
    d="M36.9063 24.2658L24.5534 15.4205L12.2004 24.1895V49.7342L24.5534 58.5795L36.9063 49.8105V24.2658ZM20.512 3.2963C21.732 2.45752 23.1046 2 24.5534 2C26.0022 2 27.3747 2.45752 28.5948 3.2963L43.0827 13.6003L57.5707 3.2963C58.7908 2.45752 60.1633 2 61.6121 2C62.9847 2 64.4335 2.45752 65.5773 3.2963L83.1917 15.878C85.0217 17.1743 86.0893 19.3094 86.0893 21.5207V52.4793C86.0893 54.6906 85.0217 56.8257 83.1917 58.122L65.5773 70.7037C64.3572 71.5425 62.9847 72 61.5359 72C60.0871 72 58.7145 71.5425 57.4945 70.7037L43.0827 60.4096L28.671 70.7037C27.451 71.5425 26.0784 72 24.6296 72C23.1808 72 21.8083 71.5425 20.5882 70.7037L2.8976 58.122C1.06754 56.8257 0 54.6906 0 52.4793V21.5207C0 19.2331 1.06754 17.1743 2.8976 15.878L20.512 3.2963ZM49.183 24.1895V49.7343L61.6121 58.5795L73.9651 49.7342V24.1895L61.6121 15.4205L49.183 24.1895Z"
    fill="currentColor"
  />
</svg>
